####
#
# OBJ File Generated by Meshlab
#
####
# Object sphere.obj
#
# Vertices: 209
# Faces: 414
#
####
vn 0.458882 -0.744035 0.485633
v 2.762769 -4.541391 2.735718
vn 0.174393 0.027478 -0.984293
v 0.928454 0.160361 -5.890898
vn 0.012903 0.242898 -0.969966
v -0.045678 1.418727 -5.809597
vn -0.233687 0.540601 -0.808171
v -1.376144 3.241631 -4.831075
vn 0.463593 -0.845934 -0.263585
v 2.875853 -4.963038 -1.553058
vn -0.852074 -0.202062 0.482847
v -5.065783 -1.238426 2.843966
vn 0.109875 -0.981424 0.157274
v 0.633196 -5.862970 0.756881
vn -0.979086 0.183632 0.087578
v -5.845966 1.185317 0.419762
vn 0.372896 -0.142601 -0.916850
v 2.337910 -0.712716 -5.463612
vn -0.726910 0.460247 0.509681
v -4.350943 2.824877 2.904834
vn -0.683283 -0.487913 -0.543199
v -4.129136 -2.999982 -3.154417
vn -0.128215 -0.910572 0.392962
v -0.752134 -5.349598 2.532487
vn -0.851991 0.501125 -0.151608
v -5.079956 3.080237 -0.840353
vn -0.452665 -0.755540 -0.473553
v -2.762769 -4.541390 -2.735718
vn -0.527075 -0.522274 -0.670390
v -3.112368 -3.069102 -4.043532
vn 0.486318 0.466570 -0.738787
v 2.894120 2.727155 -4.435978
vn 0.895550 0.297421 0.330954
v 5.295540 1.877820 2.016122
vn -0.021934 0.977031 -0.211966
v -0.166907 5.871045 -1.068739
vn 0.389295 0.133671 0.911363
v 2.306027 0.954336 5.418525
vn -0.452665 0.755540 -0.473553
v -2.762769 4.541391 -2.735718
vn 0.525395 0.532124 0.663931
v 3.112368 3.069102 4.043532
vn 0.665766 0.511643 0.543118
v 4.129136 2.999982 3.154417
vn 0.005353 -0.234382 0.972130
v 0.115709 -1.208216 5.853943
vn -0.174393 0.027478 0.984293
v -0.928454 0.160361 5.890898
vn -0.186930 0.973609 0.130928
v -1.149159 5.854648 0.420177
vn 0.233687 0.540601 0.808171
v 1.376144 3.241631 4.831075
vn 0.842111 0.529615 0.101767
v 5.079956 3.080237 0.840353
vn -0.489032 -0.451485 0.746331
v -2.894120 -2.727155 4.435978
vn 0.187003 0.877715 0.441187
v 1.266262 5.166004 2.676440
vn 0.339079 0.900966 0.270715
v 2.231593 5.303804 1.622179
vn 0.458882 0.744035 0.485633
v 2.762769 4.541391 2.735718
vn 0.741586 -0.439707 -0.506663
v 4.350942 -2.824877 -2.904834
vn 0.983523 -0.002501 -0.180766
v 5.920289 -0.044903 -0.840352
vn 0.976935 -0.189312 0.098786
v 5.856194 -1.180545 0.352049
vn 0.109874 0.981424 0.157274
v 0.633196 5.862970 0.756881
vn 0.915462 -0.164850 0.367087
v 5.536395 -0.925748 2.019931
vn -0.007651 0.082300 0.996578
v 0.000000 0.000000 6.000000
vn 0.463593 0.845934 -0.263585
v 2.875852 4.963038 -1.553058
vn 0.171422 0.062826 0.983192
v 0.884106 0.394166 5.887200
vn -0.012903 0.242898 0.969966
v 0.045678 1.418727 5.809597
vn -0.128215 0.910572 0.392962
v -0.752134 5.349598 2.532487
vn 0.110724 0.993311 -0.032774
v 0.000000 6.000000 0.000000
vn 0.389043 -0.184982 0.902456
v 2.433291 -1.187799 5.333537
vn 0.880009 0.409282 -0.240984
v 5.228095 2.443428 -1.329246
vn 0.982013 0.115565 0.149317
v 5.864220 0.619159 0.741549
vn 0.997093 0.076140 0.002902
v 6.000000 0.000000 0.000000
vn 0.555058 0.831280 0.029720
v 3.333828 4.958784 0.352051
vn -0.007530 0.814414 0.580235
v -0.023438 4.820614 3.499571
vn -0.758353 -0.247771 -0.602918
v -4.401739 -1.553858 -3.670540
vn 0.133547 -0.902194 -0.410135
v 0.752134 -5.349598 -2.532487
vn -0.698204 -0.706655 -0.114674
v -4.161088 -4.213534 -0.839939
vn -0.303075 -0.682815 -0.664763
v -1.813960 -4.085255 -3.969029
vn 0.767180 -0.236078 0.596408
v 4.401739 -1.553858 3.670540
vn -0.893528 -0.330250 0.304207
v -5.281296 -2.185024 1.750412
vn -0.389295 0.133671 -0.911363
v -2.306027 0.954336 -5.418525
vn 0.002881 0.596099 0.802906
v 0.333096 3.608974 4.781669
vn -0.447710 -0.852121 0.271008
v -2.809272 -4.968571 1.651387
vn -0.304034 0.770828 0.559811
v -1.972692 4.549701 3.339855
vn 0.705235 0.698322 -0.122430
v 4.154644 4.201858 -0.907401
vn -0.998045 -0.061917 -0.008468
v -6.000000 0.000000 0.000000
vn 0.007651 0.082300 -0.996578
v 0.000000 0.000000 -6.000000
vn -0.171422 0.062826 -0.983192
v -0.884106 0.394166 -5.887200
vn -0.005353 -0.234382 -0.972130
v -0.115709 -1.208216 -5.853943
vn 0.187003 -0.877715 0.441187
v 1.266262 -5.166003 2.676440
vn 0.110724 -0.993311 -0.032774
v 0.000000 -6.000000 0.000000
vn -0.186930 -0.973609 0.130928
v -1.149159 -5.854648 0.420177
vn -0.021934 -0.977031 -0.211966
v -0.166907 -5.871044 -1.068739
vn 0.339079 -0.900966 0.270716
v 2.231593 -5.303804 1.622179
vn -0.982375 -0.120586 0.142823
v -5.876935 -0.714303 0.595008
vn -0.809015 0.221938 0.544278
v -4.832497 1.291644 3.274883
vn -0.982841 0.046293 -0.178553
v -5.877433 0.177265 -0.999033
vn 0.569702 0.782594 0.250970
v 3.394776 4.700707 1.542351
vn -0.425709 -0.902676 0.062830
v -2.346370 -5.489582 0.245104
vn 0.589026 0.240640 0.771453
v 3.434771 1.587799 4.630563
vn -0.549400 -0.805806 -0.220989
v -3.394776 -4.700707 -1.542351
vn -0.932126 -0.360887 0.030013
v -5.546128 -2.223318 0.205363
vn -0.649421 -0.671847 0.356194
v -3.914921 -3.979427 2.159605
vn -0.894376 0.088373 -0.438500
v -5.417234 0.453185 -2.487674
vn 0.656906 0.659683 0.365093
v 3.911373 3.995159 2.116926
vn 0.485970 -0.577472 -0.656018
v 3.012229 -3.655956 -3.656891
vn -0.529906 0.037816 -0.847213
v -3.154379 0.000000 -5.103909
vn -0.615228 -0.223061 -0.756134
v -3.473435 -1.284192 -4.688673
vn 0.041831 -0.431036 -0.901365
v 0.197588 -2.719626 -5.286993
vn -0.012542 -0.708922 -0.705175
v -0.145870 -4.175321 -4.285164
vn -0.724308 0.054582 -0.687312
v -4.189008 0.434702 -4.200112
vn -0.645636 -0.759401 0.080399
v -4.035059 -4.354880 0.515431
vn -0.786913 -0.566534 0.244556
v -4.717575 -3.427489 1.413087
vn 0.747972 0.661268 0.057122
v 4.323448 4.078424 0.444649
vn 0.003743 0.714143 0.699990
v 0.145870 4.175321 4.285164
vn -0.801382 0.489093 -0.344348
v -4.683861 3.098036 -2.058550
vn -0.589026 0.240640 -0.771453
v -3.434771 1.587799 -4.630562
vn -0.417577 0.411502 -0.810121
v -2.459709 2.397622 -4.919476
vn 0.615228 -0.223061 0.756134
v 3.473435 -1.284192 4.688673
vn 0.728895 0.050151 0.682786
v 4.189008 0.434702 4.200112
vn 0.240565 -0.582471 -0.776438
v 1.390363 -3.479824 -4.659801
vn -0.239087 0.586375 0.773952
v -1.390363 3.479824 4.659801
vn 0.843067 0.527683 -0.103867
v 4.717575 3.427489 -1.413087
vn -0.002882 0.596099 -0.802906
v -0.333096 3.608974 -4.781669
vn 0.740730 0.450018 -0.498801
v 4.350943 2.824877 -2.904834
vn 0.683283 -0.487913 0.543200
v 4.129136 -2.999982 3.154417
vn 0.133547 0.902194 -0.410135
v 0.752134 5.349598 -2.532487
vn 0.874504 -0.406676 0.264304
v 5.179208 -2.508710 1.488927
vn 0.555058 -0.831280 0.029720
v 3.333828 -4.958784 0.352051
vn -0.447710 0.852121 0.271008
v -2.809272 4.968571 1.651387
vn -0.830624 0.552879 0.066252
v -4.972343 3.311703 0.352292
vn 0.580005 -0.012196 -0.814522
v 3.399238 -0.098786 -4.919472
vn 0.303075 -0.682815 0.664763
v 1.813960 -4.085255 3.969029
vn 0.231946 -0.474426 0.849189
v 1.466239 -2.856411 5.026672
vn -0.516932 0.704633 0.486081
v -3.076518 4.162652 3.034365
vn 0.527075 -0.522273 0.670390
v 3.112369 -3.069102 4.043532
vn -0.007529 -0.814414 0.580235
v -0.023438 -4.820614 3.499571
vn 0.823418 0.231166 -0.518213
v 4.832496 1.291644 -3.274883
vn -0.486318 0.466570 0.738788
v -2.894120 2.727155 4.435978
vn 0.305274 0.772464 -0.556873
v 1.972692 4.549701 -3.339855
vn -0.604187 0.280875 0.745700
v -3.586399 1.619779 4.509867
vn 0.604187 0.280875 -0.745699
v 3.586399 1.619779 -4.509867
vn 0.515580 0.706828 -0.484326
v 3.076518 4.162652 -3.034365
vn 0.306397 0.312698 -0.899078
v 1.917046 1.840996 -5.342870
vn -0.222035 -0.948451 -0.226143
v -1.372085 -5.798357 -0.704584
vn -0.401886 -0.416897 -0.815282
v -2.459709 -2.397622 -4.919476
vn -0.895212 0.313098 0.317118
v -5.304086 1.970213 1.887852
vn -0.234991 -0.187130 -0.953814
v -1.447035 -1.097622 -5.694668
vn -0.814920 -0.471856 -0.336536
v -4.683861 -3.098036 -2.058549
vn -0.963731 -0.205137 -0.170706
v -5.770885 -1.193108 -1.049415
vn -0.397766 0.104778 0.911485
v -2.453027 0.475144 5.431266
vn 0.569702 -0.782594 0.250970
v 3.394776 -4.700707 1.542351
vn 0.824792 -0.543763 -0.155049
v 4.717575 -3.427489 -1.413087
vn 0.899155 -0.435086 0.047124
v 5.483081 -2.361445 0.249776
vn -0.041831 -0.431036 0.901365
v -0.197588 -2.719626 5.286993
vn -0.794315 0.556464 0.243745
v -4.717575 3.427489 1.413087
vn 0.748655 0.010854 -0.662871
v 4.372223 0.182384 -4.046816
vn -0.425708 0.902676 0.062830
v -2.346370 5.489582 0.245104
vn 0.012542 -0.708922 0.705175
v 0.145870 -4.175321 4.285164
vn 0.756257 -0.650613 0.069128
v 4.323448 -4.078424 0.444649
vn -0.645637 0.759401 0.080399
v -4.035059 4.354880 0.515431
vn -0.748033 0.012493 0.663544
v -4.372223 0.182384 4.046816
vn -0.240566 -0.582471 0.776438
v -1.390363 -3.479824 4.659801
vn -0.549400 0.805806 -0.220988
v -3.394776 4.700707 -1.542351
vn 0.912247 0.023588 -0.408961
v 5.400881 0.114061 -2.492019
vn 0.239087 0.586375 -0.773952
v 1.390363 3.479824 -4.659801
vn -0.003743 0.714143 -0.699990
v -0.145870 4.175321 -4.285164
vn 0.896329 0.048843 0.440691
v 5.417234 0.453185 2.487674
vn 0.234991 -0.187130 0.953814
v 1.447035 -1.097622 5.694668
vn 0.278514 0.946834 -0.161047
v 1.735525 5.661055 -0.840355
vn -0.047966 0.446351 0.893571
v -0.197588 2.719626 5.286993
vn 0.367728 0.929382 0.032031
v 2.272155 5.525238 0.224186
vn 0.529906 0.037816 0.847213
v 3.154379 0.000000 5.103909
vn 0.915586 0.401489 0.022572
v 5.483081 2.361445 0.249776
vn 0.954294 0.242318 -0.174945
v 5.765800 1.432042 -0.839524
vn -0.306397 0.312698 0.899078
v -1.917046 1.840996 5.342870
vn 0.045322 -0.615039 0.787193
v 0.333096 -3.608974 4.781669
vn -0.639434 -0.253502 0.725852
v -3.745854 -1.385220 4.448702
vn -0.580005 -0.012196 0.814522
v -3.399238 -0.098786 4.919472
vn -0.372896 -0.142601 0.916850
v -2.337910 -0.712716 5.463612
vn 0.698383 -0.704731 -0.124960
v 4.154644 -4.201858 -0.907401
vn -0.309128 0.691102 -0.653313
v -1.813960 4.085255 -3.969029
vn 0.641043 -0.253251 -0.724519
v 3.745854 -1.385220 -4.448702
vn -0.206533 0.879976 -0.427770
v -1.266262 5.166004 -2.676440
vn 0.007530 0.814414 -0.580235
v 0.023438 4.820614 -3.499571
vn -0.304034 -0.770828 0.559811
v -1.972692 -4.549701 3.339855
vn 0.855304 -0.217141 -0.470431
v 5.101674 -1.230238 -2.777671
vn -0.418306 0.886876 -0.196140
v -2.587330 5.227844 -1.184689
vn -0.682624 0.721770 -0.114336
v -4.161088 4.213533 -0.839939
vn 0.874018 -0.435141 -0.216206
v 5.218338 -2.569782 -1.231188
vn 0.489032 -0.451485 -0.746331
v 2.894120 -2.727155 -4.435979
vn -0.665766 0.511643 -0.543118
v -4.129136 2.999982 -3.154417
vn -0.728901 -0.447855 0.517812
v -4.350942 -2.824877 2.904835
vn 0.309128 0.691102 0.653313
v 1.813961 4.085255 3.969029
vn -0.885079 -0.176967 -0.430485
v -5.411182 -0.904051 -2.377188
vn -0.206533 -0.879976 -0.427770
v -1.266262 -5.166004 -2.676440
vn 0.007530 -0.814414 -0.580235
v 0.023438 -4.820614 -3.499571
vn -0.525395 0.532124 -0.663931
v -3.112368 3.069102 -4.043532
vn 0.758171 0.298783 0.579573
v 4.492101 1.940652 3.419876
vn -0.389042 -0.184982 -0.902457
v -2.433291 -1.187799 -5.333537
vn -0.418306 -0.886876 -0.196140
v -2.587330 -5.227844 -1.184689
vn -0.834251 -0.550694 0.027582
v -4.972343 -3.311703 0.352292
vn -0.872897 -0.423358 -0.242525
v -5.181211 -2.565463 -1.370425
vn -0.768365 0.298713 -0.566027
v -4.492102 1.940652 -3.419877
vn 0.515580 -0.706828 -0.484325
v 3.076518 -4.162652 -3.034365
vn 0.305274 -0.772464 -0.556873
v 1.972692 -4.549701 -3.339855
vn -0.516931 -0.704633 0.486081
v -3.076518 -4.162652 3.034365
vn -0.231946 -0.474426 -0.849189
v -1.466239 -2.856411 -5.026672
vn -0.045322 -0.615039 -0.787193
v -0.333096 -3.608974 -4.781669
vn -0.222035 0.948451 -0.226143
v -1.372085 5.798357 -0.704584
vn 0.954130 -0.236437 -0.183670
v 5.765800 -1.432042 -0.839524
vn -0.296643 -0.304654 0.905091
v -1.872257 -1.723673 5.384412
vn 0.647015 -0.667349 -0.368805
v 3.914921 -3.979427 -2.159605
vn 0.222199 0.321424 0.920497
v 1.472474 1.950791 5.463614
vn 0.417577 0.411502 0.810121
v 2.459709 2.397622 4.919476
vn 0.788313 0.514488 0.337439
v 4.683861 3.098036 2.058550
vn -0.485970 -0.577471 0.656018
v -3.012229 -3.655956 3.656889
vn -0.650305 0.657680 -0.380212
v -3.911373 3.995159 -2.116926
vn -0.222199 0.321424 -0.920497
v -1.472473 1.950791 -5.463613
vn 0.647015 0.667349 -0.368805
v 3.914921 3.979427 -2.159605
vn 0.047966 0.446351 -0.893571
v 0.197588 2.719626 -5.286993
vn 0.397766 0.104778 -0.911485
v 2.453027 0.475144 -5.431266
vn -0.919136 0.005572 0.393900
v -5.400881 0.114061 2.492019
vn -0.650305 -0.657680 -0.380212
v -3.911373 -3.995159 -2.116926
vn 0.278514 -0.946834 -0.161047
v 1.735525 -5.661055 -0.840355
vn 0.367728 -0.929382 0.032031
v 2.272155 -5.525238 0.224186
vn -0.931905 0.361052 0.034550
v -5.546128 2.223318 0.205363
vn -0.924135 0.280389 -0.259532
v -5.488054 1.718056 -1.472568
vn -0.485970 0.577471 0.656019
v -3.012229 3.655956 3.656891
vn 0.296643 -0.304654 -0.905091
v 1.872257 -1.723674 -5.384412
vn 0.656906 -0.659683 0.365093
v 3.911373 -3.995159 2.116926
vn 0.809482 -0.485088 0.330799
v 4.683861 -3.098036 2.058549
vn -0.649421 0.671847 0.356194
v -3.914921 3.979427 2.159605
vn 0.401886 -0.416897 0.815282
v 2.459709 -2.397622 4.919476
vn 0.485970 0.577471 -0.656018
v 3.012229 3.655956 -3.656889
# 209 vertices, 0 vertices normals

f 65//65 67//67 7//7
f 4//4 193//193 92//92
f 160//160 111//111 137//137
f 165//165 32//32 80//80
f 160//160 191//191 181//181
f 190//190 79//79 22//22
f 179//179 80//80 32//32
f 97//97 99//99 194//194
f 100//100 110//110 205//205
f 145//145 96//96 150//150
f 155//155 103//103 5//5
f 196//196 118//118 116//116
f 104//104 132//132 135//135
f 8//8 71//71 60//60
f 41//41 35//35 25//25
f 69//69 8//8 60//60
f 196//196 116//116 106//106
f 87//87 176//176 86//86
f 16//16 118//118 140//140
f 160//160 57//57 12//12
f 72//72 30//30 31//31
f 38//38 194//194 117//117
f 25//25 184//184 132//132
f 189//189 19//19 74//74
f 171//171 50//50 170//170
f 108//108 143//143 129//129
f 10//10 113//113 203//203
f 69//69 54//54 6//6
f 64//64 12//12 7//7
f 202//202 71//71 8//8
f 39//39 24//24 37//37
f 70//70 115//115 10//10
f 120//120 82//82 174//174
f 39//39 19//19 188//188
f 168//168 26//26 21//21
f 134//134 102//102 206//206
f 41//41 58//58 48//48
f 5//5 50//50 180//180
f 165//165 204//204 157//157
f 97//97 194//194 59//59
f 177//177 124//124 169//169
f 3//3 118//118 2//2
f 25//25 18//18 184//184
f 190//190 22//22 173//173
f 130//130 121//121 10//10
f 182//182 84//84 52//52
f 201//201 13//13 202//202
f 97//97 44//44 99//99
f 196//196 2//2 118//118
f 202//202 13//13 90//90
f 88//88 72//72 79//79
f 63//63 122//122 62//62
f 22//22 79//79 21//21
f 160//160 12//12 111//111
f 130//130 10//10 207//207
f 62//62 193//193 3//3
f 187//187 155//155 5//5
f 168//168 31//31 29//29
f 74//74 19//19 94//94
f 195//195 4//4 98//98
f 14//14 198//198 15//15
f 38//38 146//146 47//47
f 62//62 3//3 2//2
f 10//10 203//203 109//109
f 63//63 204//204 83//83
f 77//77 181//181 167//167
f 16//16 114//114 209//209
f 108//108 110//110 208//208
f 189//189 74//74 21//21
f 33//33 185//185 161//161
f 182//182 183//183 84//84
f 84//84 171//171 52//52
f 5//5 199//199 50//50
f 155//155 127//127 164//164
f 33//33 139//139 149//149
f 63//63 61//61 2//2
f 45//45 17//17 142//142
f 105//105 130//130 135//135
f 48//48 58//58 96//96
f 94//94 19//19 147//147
f 142//142 94//94 36//36
f 165//165 157//157 32//32
f 105//105 13//13 201//201
f 16//16 140//140 114//114
f 121//121 201//201 8//8
f 175//175 170//170 67//67
f 84//84 95//95 171//171
f 97//97 59//59 44//44
f 24//24 23//23 37//37
f 168//168 21//21 31//31
f 33//33 45//45 46//46
f 52//52 171//171 170//170
f 117//117 209//209 114//114
f 40//40 150//150 24//24
f 155//155 164//164 134//134
f 4//4 172//172 156//156
f 95//95 83//83 204//204
f 82//82 15//15 49//49
f 53//53 94//94 93//93
f 27//27 17//17 148//148
f 107//107 111//111 64//64
f 133//133 151//151 129//129
f 207//207 10//10 109//109
f 142//142 17//17 173//173
f 176//176 177//177 51//51
f 182//182 174//174 122//122
f 123//123 49//49 11//11
f 116//116 112//112 131//131
f 29//29 31//31 30//30
f 104//104 135//135 207//207
f 100//100 53//53 110//110
f 165//165 95//95 204//204
f 62//62 2//2 61//61
f 183//183 83//83 84//84
f 71//71 78//78 169//169
f 43//43 147//147 19//19
f 9//9 157//157 204//204
f 28//28 186//186 152//152
f 153//153 152//152 154//154
f 159//159 158//158 101//101
f 105//105 135//135 163//163
f 160//160 28//28 191//191
f 40//40 39//39 188//188
f 105//105 121//121 130//130
f 35//35 146//146 144//144
f 185//185 128//128 164//164
f 71//71 169//169 124//124
f 136//136 197//197 6//6
f 168//168 48//48 89//89
f 21//21 79//79 31//31
f 105//105 201//201 121//121
f 81//81 82//82 85//85
f 152//152 136//136 6//6
f 5//5 103//103 200//200
f 45//45 148//148 17//17
f 93//93 94//94 147//147
f 51//51 198//198 75//75
f 44//44 149//149 139//139
f 90//90 13//13 163//163
f 162//162 184//184 18//18
f 189//189 26//26 188//188
f 35//35 144//144 18//18
f 28//28 152//152 167//167
f 67//67 170//170 50//50
f 200//200 68//68 7//7
f 24//24 150//150 125//125
f 86//86 51//51 175//175
f 66//66 12//12 57//57
f 39//39 143//143 19//19
f 66//66 7//7 12//12
f 186//186 137//137 129//129
f 108//108 129//129 151//151
f 156//156 158//158 159//159
f 26//26 56//56 145//145
f 70//70 136//136 115//115
f 63//63 2//2 204//204
f 20//20 156//156 172//172
f 152//152 6//6 167//167
f 109//109 203//203 58//58
f 55//55 91//91 92//92
f 69//69 76//76 54//54
f 208//208 110//110 93//93
f 77//77 86//86 57//57
f 182//182 122//122 83//83
f 88//88 190//190 27//27
f 175//175 119//119 73//73
f 134//134 205//205 126//126
f 165//165 180//180 95//95
f 1//1 205//205 110//110
f 134//134 126//126 103//103
f 69//69 197//197 8//8
f 120//120 15//15 82//82
f 178//178 172//172 91//91
f 108//108 208//208 43//43
f 28//28 137//137 186//186
f 33//33 46//46 34//34
f 155//155 134//134 103//103
f 177//177 169//169 49//49
f 123//123 198//198 51//51
f 90//90 163//163 192//192
f 9//9 2//2 196//196
f 40//40 24//24 39//39
f 107//107 108//108 133//133
f 55//55 122//122 174//174
f 126//126 205//205 1//1
f 102//102 36//36 53//53
f 66//66 65//65 7//7
f 15//15 198//198 11//11
f 39//39 37//37 23//23
f 74//74 94//94 173//173
f 74//74 173//173 21//21
f 175//175 51//51 75//75
f 38//38 144//144 146//146
f 18//18 101//101 158//158
f 22//22 21//21 173//173
f 113//113 115//115 150//150
f 160//160 137//137 28//28
f 108//108 43//43 143//143
f 34//34 128//128 185//185
f 201//201 202//202 8//8
f 202//202 178//178 78//78
f 202//202 90//90 178//178
f 34//34 36//36 102//102
f 39//39 23//23 143//143
f 172//172 166//166 192//192
f 93//93 147//147 43//43
f 159//159 114//114 140//140
f 64//64 7//7 68//68
f 161//161 32//32 157//157
f 35//35 30//30 146//146
f 100//100 205//205 206//206
f 103//103 126//126 68//68
f 41//41 29//29 35//35
f 203//203 113//113 58//58
f 165//165 80//80 180//180
f 20//20 172//172 192//192
f 133//133 137//137 111//111
f 89//89 56//56 26//26
f 20//20 138//138 162//162
f 132//132 162//162 135//135
f 88//88 59//59 47//47
f 23//23 186//186 129//129
f 175//175 14//14 170//170
f 69//69 124//124 76//76
f 191//191 167//167 181//181
f 187//187 179//179 32//32
f 55//55 92//92 193//193
f 96//96 113//113 150//150
f 55//55 174//174 81//81
f 35//35 18//18 42//42
f 179//179 180//180 80//80
f 28//28 167//167 191//191
f 20//20 192//192 138//138
f 182//182 83//83 183//183
f 66//66 67//67 65//65
f 199//199 7//7 67//67
f 135//135 162//162 163//163
f 44//44 139//139 112//112
f 159//159 140//140 141//141
f 15//15 11//11 49//49
f 187//187 5//5 179//179
f 127//127 32//32 164//164
f 156//156 159//159 141//141
f 24//24 186//186 23//23
f 90//90 166//166 178//178
f 117//117 99//99 209//209
f 34//34 102//102 128//128
f 160//160 181//181 57//57
f 26//26 145//145 188//188
f 44//44 148//148 149//149
f 33//33 149//149 45//45
f 40//40 145//145 150//150
f 55//55 81//81 85//85
f 45//45 149//149 148//148
f 200//200 7//7 199//199
f 38//38 114//114 101//101
f 85//85 49//49 169//169
f 16//16 116//116 118//118
f 36//36 94//94 53//53
f 105//105 163//163 13//13
f 68//68 126//126 1//1
f 117//117 194//194 99//99
f 41//41 48//48 29//29
f 9//9 196//196 106//106
f 66//66 57//57 73//73
f 200//200 103//103 68//68
f 88//88 79//79 190//190
f 87//87 167//167 54//54
f 63//63 62//62 61//61
f 195//195 141//141 140//140
f 86//86 176//176 51//51
f 38//38 59//59 194//194
f 64//64 68//68 1//1
f 5//5 180//180 179//179
f 187//187 32//32 127//127
f 77//77 167//167 87//87
f 66//66 73//73 119//119
f 112//112 139//139 131//131
f 14//14 75//75 198//198
f 9//9 106//106 157//157
f 195//195 98//98 141//141
f 77//77 57//57 181//181
f 86//86 73//73 57//57
f 190//190 173//173 17//17
f 90//90 192//192 166//166
f 180//180 50//50 171//171
f 38//38 47//47 59//59
f 24//24 125//125 154//154
f 168//168 29//29 48//48
f 177//177 49//49 123//123
f 202//202 78//78 71//71
f 152//152 186//186 154//154
f 78//78 178//178 85//85
f 123//123 11//11 198//198
f 134//134 206//206 205//205
f 182//182 15//15 120//120
f 88//88 44//44 59//59
f 104//104 207//207 109//109
f 195//195 140//140 118//118
f 40//40 188//188 145//145
f 167//167 6//6 54//54
f 177//177 123//123 51//51
f 76//76 177//177 176//176
f 102//102 53//53 206//206
f 69//69 71//71 124//124
f 89//89 96//96 145//145
f 53//53 93//93 110//110
f 9//9 204//204 2//2
f 77//77 87//87 86//86
f 25//25 132//132 104//104
f 185//185 164//164 161//161
f 18//18 144//144 101//101
f 55//55 85//85 91//91
f 134//134 164//164 128//128
f 24//24 154//154 186//186
f 161//161 164//164 32//32
f 107//107 133//133 111//111
f 182//182 120//120 174//174
f 16//16 209//209 99//99
f 116//116 131//131 106//106
f 162//162 138//138 163//163
f 45//45 36//36 34//34
f 14//14 15//15 52//52
f 38//38 117//117 114//114
f 35//35 29//29 30//30
f 172//172 92//92 91//91
f 43//43 19//19 143//143
f 78//78 85//85 169//169
f 208//208 93//93 43//43
f 41//41 25//25 104//104
f 190//190 17//17 27//27
f 62//62 122//122 55//55
f 63//63 83//83 122//122
f 195//195 118//118 3//3
f 5//5 200//200 199//199
f 86//86 175//175 73//73
f 178//178 166//166 172//172
f 33//33 34//34 185//185
f 62//62 55//55 193//193
f 23//23 129//129 143//143
f 84//84 83//83 95//95
f 142//142 173//173 94//94
f 178//178 91//91 85//85
f 38//38 101//101 144//144
f 134//134 128//128 102//102
f 47//47 30//30 72//72
f 159//159 101//101 114//114
f 87//87 54//54 176//176
f 104//104 109//109 58//58
f 187//187 127//127 155//155
f 195//195 3//3 193//193
f 132//132 184//184 162//162
f 25//25 42//42 18//18
f 4//4 92//92 172//172
f 157//157 106//106 131//131
f 89//89 145//145 56//56
f 88//88 27//27 148//148
f 48//48 96//96 89//89
f 96//96 58//58 113//113
f 76//76 124//124 177//177
f 47//47 146//146 30//30
f 4//4 141//141 98//98
f 199//199 67//67 50//50
f 195//195 193//193 4//4
f 88//88 148//148 44//44
f 20//20 158//158 156//156
f 99//99 44//44 112//112
f 153//153 136//136 152//152
f 10//10 115//115 113//113
f 175//175 75//75 14//14
f 108//108 151//151 133//133
f 16//16 99//99 116//116
f 168//168 89//89 26//26
f 14//14 52//52 170//170
f 66//66 119//119 67//67
f 153//153 154//154 125//125
f 20//20 162//162 158//158
f 130//130 207//207 135//135
f 33//33 161//161 139//139
f 4//4 156//156 141//141
f 161//161 131//131 139//139
f 189//189 21//21 26//26
f 82//82 49//49 85//85
f 121//121 197//197 70//70
f 95//95 180//180 171//171
f 76//76 176//176 54//54
f 163//163 138//138 192//192
f 107//107 64//64 1//1
f 182//182 52//52 15//15
f 64//64 111//111 12//12
f 174//174 82//82 81//81
f 133//133 129//129 137//137
f 70//70 197//197 136//136
f 100//100 206//206 53//53
f 175//175 67//67 119//119
f 45//45 34//34 46//46
f 69//69 6//6 197//197
f 107//107 110//110 108//108
f 189//189 188//188 19//19
f 153//153 125//125 115//115
f 121//121 70//70 10//10
f 25//25 35//35 42//42
f 121//121 8//8 197//197
f 99//99 112//112 116//116
f 45//45 142//142 36//36
f 125//125 150//150 115//115
f 69//69 60//60 71//71
f 41//41 104//104 58//58
f 162//162 18//18 158//158
f 107//107 1//1 110//110
f 153//153 115//115 136//136
f 161//161 157//157 131//131
f 88//88 47//47 72//72
f 72//72 31//31 79//79
# 414 faces, 0 coords texture

# End of File
